<svg width="8" height="8" viewBox="0 0 8 8" fill="none" xmlns="http://www.w3.org/2000/svg">
<path d="M7.98686 7.70424C7.68473 7.79802 7.41544 7.84851 7.17898 7.84851C6.3908 7.84851 5.85878 7.21371 5.58949 5.93688H5.55665C4.9064 7.3147 3.99343 8 2.84401 8C1.98358 8 1.29392 7.64653 0.775041 6.93237C0.256157 6.21821 0 5.32372 0 4.24166C0 2.97926 0.295567 1.96934 0.880131 1.18305C1.4647 0.396754 2.25944 0 3.26437 0C3.80296 0 4.289 0.165915 4.70936 0.490532C5.12972 0.822362 5.45156 1.28404 5.67488 1.88278H5.70115L6.16749 0.151488H7.84893L6.44335 3.98918C6.60099 4.88368 6.76519 5.49684 6.9491 5.82146C7.10673 6.14608 7.33005 6.31199 7.60591 6.31199C7.76355 6.31199 7.88834 6.28314 8 6.23264L7.98686 7.70424ZM5.18883 3.92426C5.0509 3.10911 4.82759 2.4743 4.52545 2.04148C4.22989 1.60144 3.86864 1.38503 3.45484 1.38503C2.91626 1.38503 2.48276 1.65194 2.16092 2.17854C1.83908 2.71235 1.69458 3.3688 1.69458 4.14067C1.69458 4.84761 1.81938 5.43192 2.10181 5.90803C2.37767 6.38413 2.75205 6.61497 3.21839 6.61497C3.61248 6.61497 3.97373 6.40577 4.29557 6.00902C4.62397 5.59784 4.89327 4.9991 5.11002 4.2128L5.18883 3.92426Z" fill="#C0000D"/>
</svg>
