<svg width="32" height="32" viewBox="0 0 32 32" fill="none" xmlns="http://www.w3.org/2000/svg">
<path d="M25.79 15.03C25.89 14.97 25.97 14.9 26.04 14.82C26.08 14.92 26.12 15.02 26.15 15.13C26.38 15.85 26.38 16.65 26.37 18.26V21.37C26.35 22.98 26.35 23.78 26.11 24.5C25.9 25.14 25.56 25.72 25.11 26.21C24.6 26.77 23.91 27.17 22.51 27.97L19.84 29.5C19.84 29.5 19.82 29.51 19.81 29.52C18.42 30.32 17.72 30.72 16.98 30.87C16.33 31.01 15.65 31 15 30.87C14.26 30.71 13.57 30.31 12.18 29.5L9.49 27.93C8.1 27.12 7.41 26.72 6.91 26.15C6.46 25.65 6.13 25.06 5.92 24.43C5.7 23.69 5.7 22.89 5.7 21.28C5.7 21.27 5.7 21.25 5.7 21.24V18.17C5.72 16.56 5.72 15.76 5.96 15.04C5.96 15.01 5.98 14.98 5.99 14.95L14.36 19.83C15.45 20.47 16.81 20.46 17.89 19.8L25.79 15.03Z" fill="#000091"/>
<path d="M18.84 8.37L18.27 11.14C18.2 11.47 18.58 11.84 18.91 11.78L21.68 11.21L28.68 4.21C29.28 3.61 29.12 2.5 28.34 1.72C27.56 0.94 26.44 0.79 25.85 1.38L18.85 8.38L18.84 8.37Z" fill="#000091"/>
<path d="M21.08 13.36L19.31 13.73C19.14 13.77 18.97 13.78 18.79 13.78C18.02 13.78 17.31 13.44 16.82 12.84C16.34 12.25 16.15 11.47 16.3 10.72L16.67 8.95C16.69 8.83 16.74 8.72 16.77 8.61C16.19 8.51 15.59 8.51 15.02 8.63C14.28 8.78 13.58 9.18 12.19 9.98L9.49 11.53C8.26 12.24 7.57 12.63 7.08 13.1L15.38 17.94C15.79 18.18 16.31 18.18 16.72 17.93L24.79 13.05C24.47 12.77 24.06 12.5 23.5 12.17C22.81 12.76 21.99 13.18 21.09 13.37L21.08 13.36Z" fill="#C0000D"/>
</svg>
