<svg width="20" height="20" viewBox="0 0 20 20" fill="none" xmlns="http://www.w3.org/2000/svg">
<g clip-path="url(#clip0_74_203)">
<path d="M17.2692 1H2.73077C1.77538 1 1 1.77538 1 2.73077V17.2692C1 18.2246 1.77538 19 2.73077 19H17.2692C18.2246 19 19 18.2246 19 17.2692V2.73077C19 1.77538 18.2246 1 17.2692 1ZM2.38462 17.2692V6.23385C5.04308 4.39923 9.30769 4.05308 12.2777 7.02308C13.51 8.25538 13.6277 9.48077 13.78 11.0385C13.8562 11.8069 13.9392 12.6862 14.1746 13.6277C14.6592 15.58 13.5931 17.0892 13.1569 17.6154H2.73077C2.53692 17.6154 2.38462 17.4631 2.38462 17.2692ZM17.6154 17.2692C17.6154 17.4631 17.4631 17.6154 17.2692 17.6154H14.8392C15.4138 16.6392 15.9746 15.1162 15.5177 13.2954C15.31 12.4508 15.2338 11.6685 15.1577 10.9138C14.9915 9.23154 14.8392 7.63923 13.2608 6.05385C10.0346 2.82077 5.52769 2.89692 2.38462 4.61385V2.73077C2.38462 2.53692 2.53692 2.38462 2.73077 2.38462H17.2692C17.4631 2.38462 17.6154 2.53692 17.6154 2.73077V17.2692Z" fill="#000091"/>
<path d="M10.3115 12.8869C10.3115 12.8869 8.66377 13.9531 7.04377 13.5516C6.123 13.3231 5.3407 12.6585 4.73839 11.5577C4.55147 11.2254 4.12916 11.1008 3.79685 11.2877C3.46454 11.4746 3.33993 11.8969 3.52685 12.2293C4.32993 13.6762 5.40993 14.5762 6.72531 14.8946C7.09224 14.9846 7.45916 15.0193 7.81224 15.0193C9.5707 15.0193 11.0038 14.0777 11.0799 14.0293C11.3984 13.8146 11.4815 13.3923 11.2738 13.0739C11.0661 12.7554 10.6369 12.6654 10.3184 12.88L10.3115 12.8869Z" fill="#000091"/>
<path d="M4.95307 9.10691C5.13999 8.91999 5.40999 8.83691 5.61768 8.90614C5.88076 8.98922 6.08153 9.32845 6.17153 9.84768C6.22691 10.1869 6.52461 10.4223 6.84999 10.4223C6.89153 10.4223 6.92614 10.4223 6.96768 10.4154C7.34153 10.3531 7.59768 9.99306 7.53538 9.61922C7.29307 8.19306 6.49691 7.73614 6.03999 7.59076C5.34076 7.36922 4.53076 7.58383 3.97691 8.13076C3.70691 8.40076 3.70691 8.83691 3.97691 9.10691C4.24691 9.37691 4.68307 9.37691 4.95307 9.10691Z" fill="#000091"/>
<path d="M12.4715 10.4708C12.2084 9.62616 11.6269 9.07231 10.8722 8.9477C10.0553 8.80923 9.20378 9.23154 8.62916 10.0277C8.40763 10.3392 8.47686 10.7685 8.7884 10.9969C9.09993 11.2185 9.52916 11.1492 9.75763 10.8377C10.0207 10.4777 10.3738 10.27 10.6576 10.3185C10.9553 10.3669 11.0938 10.6923 11.1561 10.8862C11.2461 11.1838 11.523 11.3777 11.8207 11.3777C11.8899 11.3777 11.9592 11.3708 12.0284 11.35C12.3953 11.2392 12.5961 10.8515 12.4853 10.4846L12.4715 10.4708Z" fill="#000091"/>
</g>
<defs>
<clipPath id="clip0_74_203">
<rect width="18" height="18" fill="white" transform="translate(1 1)"/>
</clipPath>
</defs>
</svg>
